<?xml version="1.0" encoding="UTF-8"?>
<svg id="Layer_1" xmlns="http://www.w3.org/2000/svg" version="1.1" viewBox="0 0 1180.25 397.57">
  <!-- Generator: Adobe Illustrator 29.3.1, SVG Export Plug-In . SVG Version: 2.1.0 Build 151)  -->
  <defs>
    <style>
      .st0 {
        fill: #246836;
      }

      .st1 {
        fill: #02253f;
      }
    </style>
  </defs>
  <polygon class="st1" points="80.44 316.67 80.44 314.74 71.95 314.74 71.95 325.68 80.44 325.68 80.44 323.76 74.78 323.76 74.78 321.27 79.7 321.27 79.7 319.35 74.78 319.35 74.78 316.67 80.44 316.67"/>
  <path class="st1" d="M94.33,319.31l-1.35-.41c-1.28-.38-1.37-.9-1.37-1.18,0-.71.68-1.01,1.55-1.01.53,0,1.42.12,1.98,1.22l2.29-.99c-.77-1.57-2.29-2.38-4.27-2.38-2.5,0-4.31,1.22-4.31,3.19,0,.9.43,2.42,3.26,3.25l1.39.41c1.21.36,1.48.75,1.48,1.17,0,.81-.91,1.12-1.91,1.12-1.19,0-1.99-.54-2.32-1.5l-2.51.43c.25,2.04,2.48,3.22,4.93,3.22,2.24,0,4.58-1.02,4.58-3.31-.01-1-.53-2.48-3.39-3.24"/>
  <polygon class="st1" points="105.29 314.74 105.29 316.78 108.88 316.78 108.88 325.68 111.68 325.68 111.68 316.78 115.31 316.78 115.31 314.74 105.29 314.74"/>
  <path class="st1" d="M123.53,323.13c-.98,0-1.71.6-1.71,1.37s.73,1.35,1.71,1.35,1.75-.57,1.75-1.35-.77-1.37-1.75-1.37"/>
  <path class="st1" d="M276.71,317.68l-4.62,1.76.7,1.83c.68-.24,1.86-.56,2.71-.87v8.22h2.77v-10.94h-1.55Z"/>
  <path class="st1" d="M291.62,317.5c-2.99,0-5.04,1.59-5.04,3.76,0,2.35,2.4,3.69,4.7,3.69,1.19,0,2.36-.46,2.83-1.09h.08c-.15,1.99-1.72,2.91-2.97,2.91-.62,0-1.81-.09-2.69-.9l-1.66,1.3c1.02,1.03,2.68,1.61,4.46,1.61,3.74,0,5.64-2.62,5.64-5.9s-2.06-5.39-5.36-5.39M291.64,323.11c-1.42,0-2.3-.75-2.3-1.82s1.08-1.81,2.35-1.81c1.5,0,2.33.96,2.33,1.9,0,.87-.73,1.73-2.38,1.73"/>
  <path class="st1" d="M313.19,322.76c1.04-.34,1.75-1.3,1.75-2.09,0-1.95-1.97-3.16-4.77-3.16s-4.76,1.21-4.76,3.16c0,.79.72,1.76,1.75,2.09-1.35.35-2.26,1.55-2.26,2.51,0,2.2,2.19,3.52,5.27,3.52s5.28-1.31,5.28-3.52c0-.97-.91-2.16-2.26-2.51M310.17,319.42c1.22,0,1.97.57,1.97,1.24s-.56,1.42-1.95,1.42h-.03c-1.39,0-1.95-.78-1.95-1.42,0-.67.75-1.24,1.97-1.24M310.17,326.8c-1.51,0-2.48-.68-2.48-1.53,0-.79.8-1.6,2.55-1.56,1.67,0,2.42.79,2.42,1.56,0,.84-.97,1.53-2.49,1.53"/>
  <path class="st1" d="M329.09,321.33c-1.19,0-2.25.51-2.83,1.1h-.07c.14-1.98,1.71-2.9,2.96-2.9.61,0,1.8.09,2.68.88l1.66-1.29c-1.02-1.03-2.68-1.61-4.45-1.61-3.74,0-5.64,2.62-5.64,5.9s2.06,5.39,5.35,5.39c2.99,0,5.04-1.59,5.04-3.77,0-2.35-2.4-3.69-4.69-3.69M328.67,326.82c-1.5,0-2.33-.97-2.33-1.91,0-.88.73-1.73,2.38-1.73,1.42,0,2.3.75,2.3,1.84,0,1.02-1.08,1.8-2.35,1.8"/>
  <path class="st1" d="M191.76,306.27l-6.17,2.49c-7.79,3.15-15.12,6.12-22.58,9.19-1.02.43-1.55.18-2.3-.14l-.36-.15c-18.74-7.76-37.48-15.5-56.22-23.25l-31.32-12.95c-6.3-2.61-9.94-5.67-11.1-9.35-.33-1.07-.38-2.2-.4-3.37-.03-1.71-.03-3.43-.01-5.14,0-1.51,0-3.02-.02-4.53-.01-1.4-.03-2.5,2.19-3.19.66-.2,1.26-.28,1.86-.28,1.37,0,2.62.45,4.03,1.03,25.73,10.44,51.46,20.86,77.18,31.29l44.07,17.86c.37.15.74.31,1.16.5"/>
  <path class="st1" d="M338.61,262.57c-.01-.83-.03-1.66-.03-2.49-.01-.3-.17-.59-.5-.86-.9-.76-2.68-1.13-4.27-.89-1,.16-1.97.55-2.89.93l-.19.08c-41.22,16.64-82.45,33.31-123.67,49.97-34.34,13.88-68.69,27.76-103.03,41.66-1.71.7-2.63,1.3-2.87,1.92-.08.2-.16.52.1,1.11.53,1.21,2.17,1.77,5.3,1.8l21.21.22c1.84.02,3.71.04,5.56.07,5.2.06,10.57.14,15.86.11,1.91-.03,3.98-.4,5.42-.99,9.07-3.71,18.14-7.45,27.21-11.18h-.02c.85-.31,13.61-4.98,25.33.23-.36-.15-.72-.32-1.08-.48l-1.04-.46c.7.28,1.41.59,2.11.94h0s0,0,0,0c9.43,4.2,18.85,8.42,28.3,12.59.9.39,2.23.65,3.38.65,10.07.03,20.12.03,30.19.03,5.68,0,11.36.01,17.06.01,2.32,0,3.82-.61,4.57-1.88.25-.46.32-.87.19-1.28-.21-.7-.99-1.37-2.24-1.93-1.16-.53-2.35-1.04-3.55-1.56-.74-.31-1.48-.63-2.22-.96l-10.53-4.6c-14.77-6.46-29.55-12.93-44.35-19.36l-1.13-.5,1.89-.78c14.84-6.12,29.68-12.25,44.51-18.36,17.89-7.38,35.77-14.75,53.67-22.14,4.79-1.98,10.4-4.83,11.17-9.34.49-2.79.59-5.65.59-8.49,0-1.28-.03-2.55-.04-3.81M182.18,343.88c.1-.04.22-.09.35-.14-.12.05-.23.1-.35.14"/>
  <path class="st1" d="M182.53,343.74c-.12.05-.23.1-.35.14.1-.04.22-.09.35-.14"/>
  <path class="st1" d="M207.15,344.25c-.36-.15-.72-.32-1.08-.48l-1.04-.46c.7.28,1.41.59,2.11.94"/>
  <path class="st1" d="M199.87,299.02l-135.05-55.62c22.66-6.52,52.03-3.85,78.92,7.23,26.9,11.08,47.77,29.1,56.12,48.4"/>
  <path class="st1" d="M339.38,244.26l-137.52,54.78c8.8-19.29,30.21-37.2,57.61-48.11,17.22-6.86,35.36-10.38,52.13-10.38,9.9,0,19.32,1.22,27.78,3.72"/>
  <path class="st1" d="M309.94,165.31v-6.59h-1.9l-9.53-.34.21-27.25.85-5.23,5-4.9c0-.52-3.03-1.02-3.03-1.02v-3.38c-.88-1.35-4.34-1.52-4.34-1.52v-18.76l4.34-6.09-1.52-1.69v-2.88c-.65-.68-6.5-1.86-6.5-1.86v-12c-.43-4.91-3.91-5.41-3.91-5.41v-4.7c-.12.01-.23.01-.34.01-2.12,0-4.23-.59-6.07-1.74l-1.95,1.68v4.99c-3.91.59-4.23,4.65-4.23,4.65v13.01c-4.45,1.02-6.39,1.77-6.39,1.77l.21,2.96-.97.84,4.12,6.61v19.1c-2.61.16-4.78,1.01-4.78,1.01l-.22,3.72c-1.08-.17-2.38.84-2.38.84l4.55,4.74.87,4.73v27.65l-10.47,3.09v1.21c.17.18.33.35.48.54.17.17.33.37.49.55,7.01,8.06,13.2,19.85,14.14,36.67l3.2,1.98v21.39l9.2,5.47.95.57.97.58c.46.03.93.08,1.39.14,3.24-.59,7.72-1.31,12.23-1.93v-53.3l7.19-9.94h-1.88ZM274.81,108.05c0,.1-.08.17-.19.17h-.04c-.1,0-.19-.07-.19-.17v-8.66c0-.09.1-.17.19-.17h.04c.12,0,.19.08.19.17v8.66ZM279.08,108.05c0,.1-.08.17-.18.17h-.48c-.09,0-.17-.07-.17-.17v-8.66c0-.09.08-.17.17-.17h.48c.1,0,.18.08.18.17v8.66ZM288.48,62.58c.22-.97.63,0,.63,0v2.7c-.3.32-.63,0-.63,0v-2.7ZM281.59,65.28v-2.7s.42-.97.65,0v2.7s-.32.32-.65,0M284.18,108.97c0,.12-.08.2-.2.2h-1.66c-.12,0-.21-.08-.21-.2v-9.56c0-.11.09-.19.21-.19h1.66c.12,0,.2.08.2.19v9.56ZM286.26,65.28c-.88.32-1.8,0-1.8,0v-2.7c.64-.97,1.8,0,1.8,0v2.7ZM289.43,108.97c0,.12-.1.2-.21.2h-1.66c-.12,0-.21-.08-.21-.2v-9.56c0-.11.1-.19.21-.19h1.66c.11,0,.21.08.21.19v9.56ZM293.6,108.05c0,.1-.08.17-.17.17h-.46c-.1,0-.18-.07-.18-.17v-8.66c0-.09.08-.17.18-.17h.46c.09,0,.17.08.17.17v8.66ZM296.88,108.05c0,.1-.08.17-.18.17h-.06c-.1,0-.17-.07-.17-.17v-8.66c0-.09.07-.17.17-.17h.06c.1,0,.18.08.18.17v8.66Z"/>
  <path class="st0" d="M280.97,233.44c-3.11.73-9.52,2.37-17.35,4.94l-.12.04c-1.93.64-3.7,1.24-5.42,1.87l-.1.03c-21.72,7.82-49.22,21.62-57.13,43.03-6.88-18.58-28.81-31.29-46.04-38.67-14.9-6.39-28.94-10.02-34.07-11.25l2.77-.75,7.08-4.2v-21.43l3.08-1.9.06-1.39c.69-16.17,6.41-29.33,17.03-39.11,7.97-7.34,15.79-9.89,15.93-9.94l.35-.15c20.2-10.34,29.7-19.38,33.72-24.13,4.02,4.75,13.53,13.79,33.78,24.16l.34.14c.34.1,8.11,2.76,15.9,9.93,2.24,2.07,4.29,4.31,6.07,6.65.15.19.28.38.43.57l.06.1c.15.21.32.42.46.63,6.12,8.58,9.48,19.05,9.98,31.16l.05,1.39,3.08,1.9v21.43l6.77,4.04,3.26.92Z"/>
  <path class="st1" d="M297.28,56.67c-.81,1.09-1.84,1.99-3.04,2.68-1.77,1.01-3.77,1.42-5.74,1.28-1.56-.12-3.09-.58-4.47-1.37-.93-.55-1.79-1.24-2.53-2.07-1.02-1.13-1.73-2.39-2.38-4.22-1.01-3.39-.33-6.71,1.99-9.6.93-1.17,2.15-2.08,3.62-2.75.71-.32,1.44-.55,2.24-.7-3.03,2.17-4.37,5.19-4.02,8.98.43,4.53,3.92,8.17,8.48,8.83,1.8.28,3.59.01,5.29-.76.19-.1.38-.19.57-.3"/>
  <path class="st0" d="M203.79,134.92c-.25-.21-.34-.44-.32-1.06.08-2.35-.63-4.71-1.65-5.62-.17-.16-.41-.17-.41-.73,0-.68-.1-1.38.23-1.93.75-1.27.72-3.43-.03-4.72-.35-.61-.4-2-.1-2.69.52-1.13.52-2.55,0-3.63-.15-.34-.24-.71-.24-1.17v-2.12c0-3.1-.08-6.18-.19-9.26-.02-.45-.02-.95-.2-1.28h-.12c-.2.51-.19,1.16-.21,1.76-.1,3.65-.21,7.31-.19,10.98,0,.44-.06.75-.22,1.03-.56,1.11-.57,2.51-.05,3.66.34.77.3,2.06-.07,2.72-.78,1.33-.78,3.49,0,4.82.26.43.36,1.21.26,1.88-.05.34-.19.36-.31.46-.58.44-1.07,1.14-1.42,2.28-.32,1.02-.48,2.13-.46,3.37,0,.61,0,.83-.1,1.01.83-.49,1.7-.75,2.62-.75,1.46,0,2.82.67,3.99,1.81-.26-.3-.54-.57-.82-.82"/>
  <path class="st1" d="M182.53,343.74c-.12.05-.23.1-.35.14.1-.04.22-.09.35-.14"/>
  <path class="st1" d="M207.15,344.25c-.36-.15-.72-.32-1.08-.48l-1.04-.46c.7.28,1.41.59,2.11.94"/>
  <path class="st1" d="M408.23,243.55c.93-.14,1.68-.61,2.22-1.4.54-.79,1.06-1.69,1.56-2.69l19.97-41.98c.5-.93.95-1.79,1.35-2.58.39-.79.59-1.48.59-2.05,0-.72-.25-1.22-.75-1.51-.5-.28-1.04-.5-1.62-.64v-1.95h18.24v1.95c-.5.14-1.01.34-1.51.59-.5.25-.75.77-.75,1.57,0,.57.13,1.15.38,1.73.25.57.63,1.33,1.13,2.26l22.44,43.92c.36.79.84,1.37,1.46,1.73.61.35,1.31.72,2.1,1.08v1.95h-18.99v-1.95c.28,0,.64-.11,1.08-.32.43-.22.65-.54.65-.97,0-.72-.29-1.65-.86-2.8l-4.1-7.99h-26.33l-3.89,7.66c-.72,1.51-1.08,2.59-1.08,3.24,0,.79.68,1.19,2.05,1.19v1.95h-15.33v-1.95ZM448.92,223.48l-9.06-20.07-10.15,20.07h19.21Z"/>
  <path class="st1" d="M505.68,190.67c-1.59,0-2.37.65-2.37,1.95v32.37c0,4.53,1.46,7.64,4.37,9.33,2.91,1.7,7.17,2.54,12.78,2.54s9.88-.84,12.79-2.54c2.91-1.69,4.38-4.8,4.38-9.33v-32.37c0-1.3-1.08-1.95-3.24-1.95v-1.94h17.27v1.94c-1.73,0-2.59.65-2.59,1.95v31.83c0,4.25-.61,7.75-1.84,10.53-1.22,2.76-3.06,4.98-5.5,6.63-2.45,1.66-5.49,2.77-9.12,3.35-3.64.57-7.83.86-12.57.86s-8.94-.29-12.58-.86c-3.63-.57-6.67-1.69-9.11-3.35-2.45-1.65-4.29-3.87-5.5-6.63-1.22-2.77-1.84-6.28-1.84-10.53v-31.83c0-1.3-1.01-1.95-3.02-1.95v-1.94h17.7v1.94Z"/>
  <path class="st1" d="M575.17,227.69l1.08.54c0,.65.15,1.22.43,1.73.5.86,1.5,1.71,2.97,2.53,1.47.83,3.16,1.56,5.07,2.21,1.91.64,3.91,1.17,5.99,1.57,2.08.39,3.95.59,5.61.59,1.22,0,2.81-.09,4.75-.27,1.94-.17,3.85-.56,5.72-1.13,1.87-.57,3.49-1.37,4.86-2.37,1.36-1.01,2.05-2.34,2.05-4s-.63-2.87-1.89-3.67c-1.26-.79-2.92-1.36-4.96-1.73-2.05-.35-4.4-.59-7.02-.7-2.62-.1-5.3-.27-8.04-.48-2.73-.21-5.41-.57-8.04-1.08-2.63-.5-4.96-1.35-7.01-2.54-2.05-1.19-3.71-2.8-4.96-4.85-1.26-2.05-1.89-4.73-1.89-8.04,0-2.23.52-4.43,1.57-6.58,1.04-2.16,2.64-4.07,4.8-5.72,2.16-1.65,4.89-3,8.21-4.04,3.31-1.04,7.19-1.57,11.65-1.57,3.81,0,7.12.29,9.93.87,2.81.57,5.23,1.19,7.28,1.83,2.05.65,3.78,1.26,5.18,1.84,1.4.57,2.57.86,3.51.86,1.01,0,1.73-.22,2.16-.65l1.3.86-7.45,13.49-1.08-.43c-.14-1.01-.43-1.84-.86-2.48-.57-.86-1.53-1.71-2.86-2.53-1.33-.83-2.89-1.57-4.69-2.22-1.8-.64-3.74-1.17-5.82-1.56-2.09-.4-4.18-.6-6.27-.6-1.58,0-3.22.13-4.91.38-1.69.25-3.22.63-4.58,1.13-1.37.5-2.5,1.17-3.4,1.99-.9.83-1.35,1.86-1.35,3.08,0,1.72.63,3.02,1.89,3.88,1.26.86,2.91,1.52,4.96,1.95,2.06.43,4.39.72,7.02.86,2.62.15,5.3.33,8.03.54,2.74.22,5.41.59,8.04,1.13,2.63.54,4.96,1.41,7.01,2.59,2.06,1.19,3.71,2.79,4.96,4.8,1.26,2.02,1.9,4.64,1.9,7.88,0,3.74-1,6.8-2.97,9.17-1.98,2.37-4.45,4.24-7.39,5.61-2.95,1.37-6.14,2.29-9.55,2.76-3.42.46-6.61.7-9.55.7-4.1,0-7.53-.24-10.31-.7-2.77-.47-5.07-1.04-6.9-1.73-1.84-.68-3.29-1.3-4.37-1.84-1.08-.54-2.02-.81-2.81-.81-.5,0-.97.29-1.4.87l-1.51-.87,5.93-13.05Z"/>
  <path class="st1" d="M675.63,241.61c0,1.3.79,1.94,2.38,1.94v1.95h-16.62v-1.95c.5,0,.95-.16,1.35-.48.39-.33.59-.81.59-1.46v-42.95h-17.8c-.65,0-1.28.18-1.89.54-.62.37-.92,1.05-.92,2.06h-1.95v-15.11h1.95c0,1.01.3,1.69.92,2.05.61.36,1.24.54,1.89.54h47.91c.64,0,1.28-.17,1.89-.54.61-.36.92-1.04.92-2.05h1.94v15.11h-1.94c0-1.01-.31-1.69-.92-2.06-.61-.35-1.24-.54-1.89-.54h-17.81v42.95Z"/>
  <path class="st1" d="M750.96,188.73c3.46,0,6.58.3,9.39.92,2.8.61,5.21,1.59,7.23,2.91,2.01,1.33,3.56,3.06,4.63,5.18,1.08,2.13,1.62,4.73,1.62,7.83,0,4.75-1.4,8.39-4.21,10.9-2.81,2.52-6.58,4.21-11.33,5.07l14.35,20.5c.5.72,1.1,1.15,1.78,1.3.68.14,1.31.21,1.89.21v1.95h-20.18v-1.95c.65,0,1.21-.11,1.68-.32.46-.22.7-.5.7-.86s-.14-.77-.43-1.24c-.29-.46-.72-1.09-1.3-1.89l-11.87-16.83h-15.43v19.21c0,.64.24,1.13.7,1.46.46.32,1.31.48,2.53.48v1.95h-18.67v-1.95c2.09,0,3.13-.64,3.13-1.94v-48.99c0-1.3-1.04-1.95-3.13-1.95v-1.94h36.91ZM748.15,213.98c2.59,0,4.75-.2,6.48-.59,1.72-.39,3.09-.95,4.1-1.68,1.01-.72,1.73-1.56,2.16-2.53.43-.97.64-2.03.64-3.18s-.21-2.21-.64-3.18c-.43-.97-1.15-1.82-2.16-2.54-1.01-.72-2.38-1.28-4.1-1.68-1.73-.39-3.89-.59-6.48-.59h-18.67v15.97h18.67Z"/>
  <path class="st1" d="M788.51,243.55c.93-.14,1.68-.61,2.21-1.4.54-.79,1.06-1.69,1.57-2.69l19.96-41.98c.5-.93.96-1.79,1.35-2.58.4-.79.6-1.48.6-2.05,0-.72-.25-1.22-.75-1.51-.5-.28-1.04-.5-1.62-.64v-1.95h18.24v1.95c-.5.14-1.01.34-1.51.59-.5.25-.75.77-.75,1.57,0,.57.13,1.15.38,1.73.25.57.63,1.33,1.13,2.26l22.44,43.92c.36.79.84,1.37,1.46,1.73.61.35,1.31.72,2.1,1.08v1.95h-19v-1.95c.29,0,.65-.11,1.08-.32.43-.22.64-.54.64-.97,0-.72-.28-1.65-.86-2.8l-4.09-7.99h-26.33l-3.89,7.66c-.72,1.51-1.08,2.59-1.08,3.24,0,.79.69,1.19,2.05,1.19v1.95h-15.32v-1.95ZM829.19,223.48l-9.06-20.07-10.15,20.07h19.21Z"/>
  <path class="st1" d="M923.07,247.54c0-1.08-.34-1.69-1.03-1.84-.69-.15-1.56-.21-2.64-.21h-51.37v-1.95c2.16,0,3.24-.64,3.24-1.94v-48.99c0-1.3-1.08-1.95-3.24-1.95v-1.95h18.56v1.95c-2.02,0-3.02.64-3.02,1.95v42.95h35.83c1.08,0,1.95-.25,2.64-.76.68-.5,1.03-1.19,1.03-2.05h1.95v14.79h-1.95Z"/>
  <path class="st1" d="M938.94,243.55c1.87,0,2.81-.65,2.81-1.94v-48.99c0-1.3-.94-1.95-2.81-1.95v-1.94h17.91v1.94c-1.87,0-2.8.65-2.8,1.95v48.99c0,1.29.93,1.94,2.8,1.94v1.94h-17.91v-1.94Z"/>
  <path class="st1" d="M971.09,243.55c.93-.14,1.67-.61,2.21-1.4.54-.79,1.06-1.69,1.57-2.69l19.96-41.98c.5-.93.96-1.79,1.35-2.58.4-.79.6-1.48.6-2.05,0-.72-.25-1.22-.75-1.51-.5-.28-1.04-.5-1.62-.64v-1.95h18.24v1.95c-.5.14-1.01.34-1.51.59-.5.25-.75.77-.75,1.57,0,.57.13,1.15.38,1.73.25.57.63,1.33,1.13,2.26l22.44,43.92c.36.79.84,1.37,1.46,1.73.61.35,1.31.72,2.1,1.08v1.95h-19v-1.95c.29,0,.65-.11,1.08-.32.43-.22.64-.54.64-.97,0-.72-.28-1.65-.86-2.8l-4.09-7.99h-26.33l-3.89,7.66c-.72,1.51-1.08,2.59-1.08,3.24,0,.79.69,1.19,2.05,1.19v1.95h-15.32v-1.95ZM1011.78,223.48l-9.06-20.07-10.15,20.07h19.21Z"/>
  <path class="st1" d="M1053.54,243.55c1.37,0,2.05-.65,2.05-1.94v-48.99c0-1.3-.68-1.95-2.05-1.95v-1.94h18.45v1.94c-.57,0-.86.37-.86,1.08,0,.57.72,1.58,2.15,3.02l30.97,32.16v-34.32c0-1.3-.93-1.95-2.8-1.95v-1.94h16.3v1.94c-1.37,0-2.05.65-2.05,1.95v48.99c0,1.29.68,1.94,2.05,1.94v1.94h-17.48v-1.94c.93,0,1.41-.32,1.41-.97,0-.5-.58-1.33-1.73-2.48l-32.91-34.32v35.83c0,1.29.83,1.94,2.48,1.94v1.94h-15.97v-1.94Z"/>
  <path class="st1" d="M477.7,302.58c.92,1.48,1.38,3.39,1.38,5.72,0,2.69-.73,4.92-2.17,6.65-1.41,1.7-3.17,3.05-5.27,4.02-2.07.95-4.34,1.61-6.74,1.94-2.37.32-4.63.48-6.67.48-2.84,0-5.27-.17-7.21-.48-1.93-.34-3.56-.75-4.86-1.22-1.28-.47-2.31-.9-3.06-1.29-.68-.34-1.25-.5-1.71-.5-.19,0-.37.13-.56.39l-.28.36-1.84-1.05,4.51-9.91,1.5.74v.32c0,.36.06.68.23.93.3.52.92,1.04,1.85,1.57.99.55,2.15,1.05,3.42,1.5,1.31.43,2.68.79,4.07,1.04,1.41.28,2.67.41,3.78.41.83,0,1.92-.06,3.24-.17,1.3-.13,2.6-.39,3.85-.77,1.23-.37,2.31-.89,3.2-1.55.82-.61,1.21-1.37,1.21-2.36s-.34-1.64-1.06-2.09c-.81-.5-1.89-.89-3.25-1.12-1.39-.25-2.99-.4-4.77-.47-1.81-.07-3.67-.19-5.57-.35-1.91-.14-3.81-.4-5.62-.74-1.85-.36-3.53-.97-5-1.82-1.48-.86-2.7-2.05-3.61-3.53-.9-1.48-1.38-3.46-1.38-5.82,0-1.61.39-3.22,1.13-4.77.75-1.55,1.91-2.93,3.46-4.13,1.54-1.17,3.49-2.14,5.82-2.87,2.33-.73,5.09-1.11,8.21-1.11,2.66,0,5,.2,6.95.6,1.95.41,3.67.84,5.09,1.28,1.42.46,2.64.89,3.62,1.28,1.73.72,2.96.66,3.36.28l.29-.3,1.64,1.09-5.59,10.11-1.44-.57-.05-.29c-.08-.61-.26-1.13-.52-1.5-.35-.54-.96-1.06-1.82-1.6-.89-.56-1.94-1.06-3.15-1.5-1.21-.43-2.53-.79-3.93-1.04-2.49-.48-4.92-.55-7.54-.14-1.14.15-2.17.41-3.07.74-.88.34-1.61.76-2.17,1.28-.52.48-.77,1.05-.77,1.75,0,1.02.35,1.77,1.09,2.26.81.56,1.9.99,3.25,1.26,1.38.3,2.98.49,4.76.59,1.82.1,3.67.23,5.57.37,1.9.14,3.78.41,5.6.79,1.87.39,3.55,1.01,5,1.86,1.48.84,2.7,2.02,3.6,3.47"/>
  <path class="st1" d="M413.09,280.96h13.39v2.36h-.5c-1.44,0-1.44.56-1.44.83v33.83c0,.28,0,.84,1.44.84h.5v2.35h-13.39v-2.35h.52c1.42,0,1.42-.56,1.42-.84v-33.83c0-.27,0-.83-1.42-.83h-.52v-2.36Z"/>
  <path class="st1" d="M530.42,311.36v11.24h-2.36v-.52c0-.71-.23-.75-.3-.77-.44-.1-1.02-.14-1.73-.14h-35.98v-2.35h.52c1.72,0,1.72-.61,1.72-.84v-33.83c0-.23,0-.83-1.72-.83h-.52v-2.36h13.83v2.36h-.5c-1.58,0-1.58.59-1.58.83v29.15h24.23c.63,0,1.13-.13,1.53-.42.34-.26.5-.57.5-1.01v-.52h2.36Z"/>
  <path class="st1" d="M581.16,318.85c-.52-.24-.99-.47-1.41-.72-.34-.2-.59-.52-.81-.99l-15.5-30.33c-.34-.63-.6-1.13-.77-1.53-.14-.33-.22-.64-.22-.97,0-.52.19-.61.25-.63.31-.16.64-.29.95-.37l.36-.1v-2.24h-13.6v2.24l.39.1c.35.08.68.23.98.4.13.07.27.2.27.61,0,.3-.13.7-.36,1.17-.27.55-.57,1.13-.93,1.8l-13.77,28.99c-.34.66-.69,1.28-1.04,1.8-.29.43-.68.68-1.19.75l-.43.07v2.28h11.61v-2.35h-.52c-.33,0-.9-.04-.9-.32,0-.21.08-.75.69-2l2.54-5.01h17.55l2.69,5.23c.46.91.55,1.42.55,1.71,0,.06,0,.13-.16.21-.32.15-.47.17-.52.17h-.52v2.35h14.14v-2.17l-.3-.15ZM550.49,304.95l6.15-12.17,5.49,12.17h-11.63Z"/>
  <path class="st1" d="M724.66,314.77l-1.04,1.04h-.2c-.19,0-.36-.02-.52-.06-.09-.02-.19-.02-.3-.02-.06,0-.42.04-1.88.84-1.13.59-2.57,1.28-4.29,2.02-1.74.75-3.72,1.41-5.92,1.97-2.22.55-4.57.83-6.98.83-3.16,0-6.25-.41-9.15-1.21-2.93-.82-5.56-2.08-7.82-3.78-2.26-1.71-4.08-3.85-5.4-6.39-1.32-2.54-1.99-5.56-1.99-8.95s.66-6.35,1.99-8.92c1.32-2.56,3.15-4.74,5.4-6.47,2.26-1.72,4.87-3.03,7.81-3.89,2.91-.84,6-1.28,9.17-1.28,2.53,0,4.89.2,6.98.6,2.06.41,3.9.84,5.45,1.28,1.55.44,2.8.89,3.71,1.29,1.13.5,1.4.55,1.44.55.03,0,.09,0,.2-.15.17-.25.3-.43.41-.58l.32-.46,1.91,1.52-6.36,9.84-1.39-.98v-.26c0-.13-.01-.24-.04-.35-.01-.15-.06-.3-.1-.49-.06-.3-.32-.76-1.26-1.37-.86-.56-1.94-1.04-3.2-1.48-1.3-.45-2.69-.81-4.11-1.11-1.44-.29-2.76-.43-3.96-.43-2.03,0-4,.29-5.85.86-1.84.57-3.46,1.42-4.83,2.53-1.35,1.09-2.44,2.44-3.24,4.03-.82,1.58-1.22,3.42-1.22,5.47s.41,3.89,1.21,5.48c.82,1.59,1.9,2.95,3.25,4.03,1.37,1.11,2.97,1.96,4.83,2.53,3.26,1.01,6.79,1.16,10.73.32,1.71-.36,3.27-.84,4.68-1.39,1.4-.55,2.57-1.18,3.51-1.87.82-.61,1.25-1.18,1.25-1.64,0-.23-.07-.42-.19-.57l-.37-.47,1.99-1.14,5.39,8.66Z"/>
  <path class="st1" d="M654.58,280.96h13.38v2.36h-.52c-1.42,0-1.42.56-1.42.83v33.83c0,.28,0,.84,1.42.84h.52v2.35h-13.38v-2.35h.5c1.44,0,1.44-.56,1.44-.84v-33.83c0-.27,0-.83-1.44-.83h-.5v-2.36Z"/>
  <path class="st1" d="M626.13,280.96h14.79v2.36h-.5c-.32,0-.57.07-.79.2-.06.03-.21.1-.21.49v33.97c0,.37.15.52.25.61.21.15.46.23.74.23h.5v2.35h-12.71v-2.35h.5c1.51,0,1.51-.59,1.51-.84v-23.01l-14.32,26.2h-.82l-14.03-26.24v23.05c0,.24,0,.84,1.58.84h.51v2.35h-12.2v-2.35h.52c.29,0,.54-.08.73-.23.11-.09.24-.23.24-.61v-33.97c0-.39-.13-.46-.18-.49-.23-.13-.49-.2-.79-.2h-.52v-2.36h14.95v2.36h-.5c-.15,0-.35.06-.55.15-.11.07-.14.13-.14.23,0,.1.03.32.25.75.2.39.41.81.66,1.23l10.21,18.58,10.29-18.34c.34-.63.59-1.13.76-1.5.15-.3.22-.57.22-.79,0-.17,0-.32-.46-.32h-.5v-2.36Z"/>
  <path class="st1" d="M805.05,314.77l-1.03,1.04h-.21c-.18,0-.35-.02-.5-.06-.09-.02-.21-.02-.32-.02-.06,0-.41.04-1.88.84-1.12.59-2.56,1.28-4.28,2.02-1.74.75-3.74,1.41-5.94,1.97-2.21.55-4.55.83-6.97.83-3.18,0-6.25-.41-9.15-1.21-2.93-.82-5.56-2.08-7.82-3.78-2.27-1.71-4.08-3.85-5.4-6.39-1.32-2.54-2-5.56-2-8.95s.68-6.35,2-8.92c1.32-2.56,3.13-4.74,5.4-6.47,2.24-1.72,4.87-3.03,7.8-3.89,2.92-.84,6-1.28,9.17-1.28,2.54,0,4.9.2,6.98.6,2.07.41,3.89.84,5.44,1.28,1.57.44,2.82.89,3.73,1.29,1.13.5,1.39.55,1.44.55.03,0,.1,0,.21-.15.17-.25.3-.43.41-.58l.3-.46,1.91,1.52-6.35,9.84-1.39-.98v-.26c0-.13-.01-.24-.03-.35-.03-.15-.06-.3-.1-.49-.06-.3-.32-.76-1.28-1.37-.86-.56-1.95-1.04-3.2-1.48-1.3-.45-2.68-.81-4.11-1.11-1.42-.29-2.76-.43-3.95-.43-2.02,0-3.99.29-5.86.86-1.84.57-3.47,1.42-4.82,2.53-1.37,1.09-2.45,2.44-3.26,4.03-.81,1.58-1.21,3.42-1.21,5.47s.41,3.89,1.21,5.48c.81,1.59,1.89,2.95,3.26,4.03,1.35,1.11,2.97,1.96,4.82,2.53,3.27,1.01,6.81,1.16,10.74.32,1.7-.36,3.28-.84,4.69-1.39,1.4-.55,2.57-1.18,3.49-1.87.82-.61,1.24-1.18,1.24-1.64,0-.23-.05-.42-.18-.57l-.36-.47,1.99-1.14,5.38,8.66Z"/>
  <path class="st1" d="M863.04,291.91c-1.53-2.57-3.51-4.71-5.88-6.37-2.37-1.67-5.02-2.93-7.9-3.76-5.73-1.67-11.25-1.67-16.98,0-2.87.83-5.53,2.09-7.9,3.76-2.38,1.66-4.35,3.8-5.88,6.37-1.53,2.57-2.31,5.66-2.31,9.17s.77,6.57,2.31,9.15c1.53,2.57,3.49,4.71,5.88,6.39,2.37,1.65,5.05,2.89,7.92,3.65,2.86.74,5.7,1.13,8.48,1.13s5.62-.39,8.48-1.13c2.87-.77,5.54-2,7.91-3.65,2.39-1.68,4.36-3.82,5.88-6.39,1.53-2.57,2.31-5.64,2.31-9.15s-.77-6.59-2.31-9.17M835.25,312.88c-1.82-.57-3.49-1.42-4.96-2.5-1.45-1.08-2.64-2.41-3.55-3.98-.89-1.55-1.33-3.35-1.33-5.33s.44-3.79,1.33-5.34c.9-1.57,2.09-2.9,3.55-3.98,1.47-1.08,3.13-1.91,4.96-2.49,1.84-.59,3.69-.88,5.52-.88s3.68.29,5.52.88c1.82.57,3.49,1.41,4.94,2.49,1.44,1.08,2.64,2.41,3.56,3.98.89,1.55,1.33,3.35,1.33,5.34s-.44,3.78-1.33,5.33c-.92,1.57-2.11,2.91-3.56,3.98-1.46,1.08-3.12,1.93-4.94,2.5-3.66,1.15-7.37,1.15-11.04,0"/>
  <path class="st1" d="M961.41,311.36h2.37v11.24h-2.37v-.52c0-.71-.23-.75-.3-.77-.43-.1-1.01-.14-1.71-.14h-35.99v-2.35h.53c1.71,0,1.71-.61,1.71-.84v-33.83c0-.23,0-.83-1.71-.83h-.53v-2.36h13.84v2.36h-.5c-1.58,0-1.58.59-1.58.83v29.15h24.24c.63,0,1.13-.13,1.52-.42.33-.26.49-.57.49-1.01v-.52Z"/>
  <path class="st1" d="M913.95,311.36h2.37v11.24h-2.37v-.52c0-.71-.23-.75-.3-.77-.43-.1-1.01-.14-1.71-.14h-35.99v-2.35h.53c1.71,0,1.71-.61,1.71-.84v-33.83c0-.23,0-.83-1.71-.83h-.53v-2.36h13.84v2.36h-.5c-1.58,0-1.58.59-1.58.83v29.15h24.24c.63,0,1.13-.13,1.52-.42.33-.26.49-.57.49-1.01v-.52Z"/>
  <path class="st1" d="M1012.13,311.36v11.24h-2.36v-.52c0-.71-.23-.75-.32-.77-.43-.1-1.01-.14-1.71-.14h-35.23v-2.35h.52c.23,0,.41-.07.6-.22.06-.06.23-.19.23-.62v-33.83c0-.43-.17-.56-.23-.6-.19-.16-.37-.23-.6-.23h-.52v-2.36h34.49c1.15,0,1.67-.2,1.88-.37.3-.24.44-.52.44-.91v-.52h2.36v10.85h-2.36v-.5c0-.37-.13-.63-.4-.8-.24-.16-.76-.33-1.93-.33h-23.63v8.21h14.1c.9,0,1.61-.12,2.08-.36.44-.21.53-1.02.53-1.66v-.5h2.37v12.64h-2.37v-.5c0-.66-.09-1.5-.56-1.77-.47-.27-1.17-.42-2.05-.42h-14.1v9.27h24.38c.63,0,1.13-.13,1.52-.42.34-.26.5-.57.5-1.01v-.52h2.36Z"/>
  <path class="st1" d="M1048.65,300.63h19.15v2.29l-.45.06c-1.28.2-1.57.39-1.62.42-.01.01-.17.17-.17.88v8.42c0,.19.03.44.15.5l1.33.68v1.77l-.21.15c-1.66,1.15-3.45,2.13-5.29,2.87-1.84.76-3.72,1.37-5.59,1.78-1.88.43-3.79.69-5.67.79-1.86.1-3.71.15-5.5.15-3.52,0-6.76-.44-9.66-1.33-2.91-.88-5.44-2.21-7.51-3.96-2.09-1.75-3.72-3.92-4.87-6.44-1.14-2.51-1.72-5.4-1.72-8.59s.58-6.09,1.72-8.61c1.15-2.51,2.78-4.69,4.85-6.47,2.09-1.78,4.62-3.15,7.53-4.08,2.89-.93,6.14-1.41,9.66-1.41,2.19,0,4.33.14,6.34.44,1.98.3,3.78.64,5.33,1.02,1.53.37,2.84.73,3.87,1.05,1.35.43,1.68.46,1.75.46.34,0,.57-.06.73-.19.26-.2.53-.4.79-.56l.26-.14,1.56.89-4.78,10.67-2.41-.73.16-.5c.08-.24.12-.47.12-.73,0-.56-.37-1.08-1.14-1.58-.88-.56-2.02-1.06-3.38-1.46-1.36-.42-2.9-.72-4.52-.92-3.67-.43-6.83-.45-10.01.47-1.73.5-3.3,1.3-4.67,2.33-1.35,1.05-2.46,2.41-3.29,4.08-.82,1.65-1.25,3.71-1.25,6.1s.43,4.4,1.25,6.08c.83,1.68,1.94,3.06,3.29,4.09,1.35,1.05,2.93,1.84,4.67,2.34,1.77.5,3.56.76,5.34.76,2.79,0,5.32-.23,7.53-.69,2.07-.43,3.86-.9,5.37-1.41v-5.53h-9.03c-.56,0-.98.12-1.22.33-.12.1-.39.43-.51,1.6l-.04.46h-2.31v-10.56h2.3l.05.46c.12.92.35,1.17.45,1.24.17.11.54.24,1.28.24"/>
  <path class="st1" d="M1119.49,311.36v11.24h-2.35v-.52c0-.71-.23-.75-.3-.77-.43-.1-1.02-.14-1.73-.14h-35.23v-2.35h.52c.23,0,.43-.07.6-.22.06-.06.23-.19.23-.62v-33.83c0-.43-.17-.56-.23-.6-.17-.16-.37-.23-.6-.23h-.52v-2.36h34.49c1.15,0,1.67-.2,1.9-.37.29-.24.43-.52.43-.91v-.52h2.36v10.85h-2.36v-.5c0-.37-.13-.63-.4-.8-.23-.16-.76-.33-1.93-.33h-23.63v8.21h14.1c.92,0,1.61-.12,2.08-.36.44-.21.55-1.02.55-1.66v-.5h2.35v12.64h-2.35v-.5c0-.66-.1-1.5-.58-1.77-.46-.27-1.15-.42-2.05-.42h-14.1v9.27h24.38c.63,0,1.13-.13,1.53-.42.34-.26.5-.57.5-1.01v-.52h2.35Z"/>
</svg>