<?xml version="1.0" encoding="UTF-8"?>
<svg id="Layer_1" xmlns="http://www.w3.org/2000/svg" version="1.1" viewBox="0 0 311.6 355.07">
  <!-- Generator: Adobe Illustrator 29.3.1, SVG Export Plug-In . SVG Version: 2.1.0 Build 151)  -->
  <defs>
    <style>
      .st0 {
        fill: #246836;
      }

      .st1 {
        fill: #02253f;
      }
    </style>
  </defs>
  <polygon class="st1" points="35.91 290.28 35.91 288.35 27.42 288.35 27.42 299.29 35.91 299.29 35.91 297.37 30.25 297.37 30.25 294.89 35.17 294.89 35.17 292.97 30.25 292.97 30.25 290.28 35.91 290.28"/>
  <path class="st1" d="M49.8,292.92l-1.35-.41c-1.28-.38-1.37-.9-1.37-1.18,0-.71.68-1.01,1.55-1.01.53,0,1.42.12,1.98,1.22l2.29-.99c-.77-1.57-2.29-2.38-4.27-2.38-2.5,0-4.31,1.22-4.31,3.19,0,.9.43,2.42,3.26,3.25l1.39.41c1.21.36,1.48.75,1.48,1.17,0,.81-.91,1.12-1.91,1.12-1.19,0-1.99-.54-2.32-1.5l-2.51.43c.25,2.04,2.48,3.22,4.93,3.22,2.24,0,4.58-1.02,4.58-3.31-.01-1-.53-2.48-3.39-3.24"/>
  <polygon class="st1" points="60.76 288.35 60.76 290.39 64.35 290.39 64.35 299.29 67.15 299.29 67.15 290.39 70.78 290.39 70.78 288.35 60.76 288.35"/>
  <path class="st1" d="M79,296.75c-.98,0-1.71.6-1.71,1.37s.73,1.35,1.71,1.35,1.75-.57,1.75-1.35-.77-1.37-1.75-1.37"/>
  <path class="st1" d="M232.18,291.29l-4.62,1.76.7,1.83c.68-.24,1.86-.56,2.71-.87v8.22h2.77v-10.94h-1.55Z"/>
  <path class="st1" d="M247.09,291.12c-2.99,0-5.04,1.59-5.04,3.76,0,2.35,2.4,3.69,4.7,3.69,1.19,0,2.36-.46,2.83-1.09h.08c-.15,1.99-1.72,2.91-2.97,2.91-.62,0-1.81-.09-2.69-.9l-1.66,1.3c1.02,1.03,2.68,1.61,4.46,1.61,3.74,0,5.64-2.62,5.64-5.9s-2.06-5.39-5.36-5.39M247.11,296.73c-1.42,0-2.3-.75-2.3-1.82s1.08-1.81,2.35-1.81c1.5,0,2.33.96,2.33,1.9,0,.87-.73,1.73-2.38,1.73"/>
  <path class="st1" d="M268.66,296.37c1.04-.34,1.75-1.3,1.75-2.09,0-1.95-1.97-3.16-4.77-3.16s-4.76,1.21-4.76,3.16c0,.79.72,1.76,1.75,2.09-1.35.35-2.26,1.55-2.26,2.51,0,2.2,2.19,3.52,5.27,3.52s5.28-1.31,5.28-3.52c0-.97-.91-2.16-2.26-2.51M265.65,293.04c1.22,0,1.97.57,1.97,1.24s-.56,1.42-1.95,1.42h-.03c-1.39,0-1.95-.78-1.95-1.42,0-.67.75-1.24,1.97-1.24M265.65,300.42c-1.51,0-2.48-.68-2.48-1.53,0-.79.8-1.6,2.55-1.56,1.67,0,2.42.79,2.42,1.56,0,.84-.97,1.53-2.49,1.53"/>
  <path class="st1" d="M284.56,294.94c-1.19,0-2.25.51-2.83,1.1h-.07c.14-1.98,1.71-2.9,2.96-2.9.61,0,1.8.09,2.68.88l1.66-1.29c-1.02-1.03-2.68-1.61-4.45-1.61-3.74,0-5.64,2.62-5.64,5.9s2.06,5.39,5.35,5.39c2.99,0,5.04-1.59,5.04-3.77,0-2.35-2.4-3.69-4.69-3.69M284.14,300.43c-1.5,0-2.33-.97-2.33-1.91,0-.88.73-1.73,2.38-1.73,1.42,0,2.3.75,2.3,1.84,0,1.02-1.08,1.8-2.35,1.8"/>
  <path class="st1" d="M147.23,279.88l-6.17,2.49c-7.79,3.15-15.12,6.12-22.58,9.19-1.02.43-1.55.18-2.3-.14l-.36-.15c-18.74-7.76-37.48-15.5-56.22-23.25l-31.32-12.95c-6.3-2.61-9.94-5.67-11.1-9.35-.33-1.07-.38-2.2-.4-3.37-.03-1.71-.03-3.43-.01-5.14,0-1.51,0-3.02-.02-4.53-.01-1.4-.03-2.5,2.19-3.19.66-.2,1.26-.28,1.86-.28,1.37,0,2.62.45,4.03,1.03,25.73,10.44,51.46,20.86,77.18,31.29l44.07,17.86c.37.15.74.31,1.16.5"/>
  <path class="st1" d="M294.08,236.18c-.01-.83-.03-1.66-.03-2.49-.01-.3-.17-.59-.5-.86-.9-.76-2.68-1.13-4.27-.89-1,.16-1.97.55-2.89.93l-.19.08c-41.22,16.64-82.45,33.31-123.67,49.97-34.34,13.88-68.69,27.76-103.03,41.66-1.71.7-2.63,1.3-2.87,1.92-.08.2-.16.52.1,1.11.53,1.21,2.17,1.77,5.3,1.8l21.21.22c1.84.02,3.71.04,5.56.07,5.2.06,10.57.14,15.86.11,1.91-.03,3.98-.4,5.42-.99,9.07-3.71,18.14-7.45,27.21-11.18h-.02c.85-.31,13.61-4.98,25.33.23-.36-.15-.72-.32-1.08-.48l-1.04-.46c.7.28,1.41.59,2.11.94h0s0,0,0,0c9.43,4.2,18.85,8.42,28.3,12.59.9.39,2.23.65,3.38.65,10.07.03,20.12.03,30.19.03,5.68,0,11.36.01,17.06.01,2.32,0,3.82-.61,4.57-1.88.25-.46.32-.87.19-1.28-.21-.7-.99-1.37-2.24-1.93-1.16-.53-2.35-1.04-3.55-1.56-.74-.31-1.48-.63-2.22-.96l-10.53-4.6c-14.77-6.46-29.55-12.93-44.35-19.36l-1.13-.5,1.89-.78c14.84-6.12,29.68-12.25,44.51-18.36,17.89-7.38,35.77-14.75,53.67-22.14,4.79-1.98,10.4-4.83,11.17-9.34.49-2.79.59-5.65.59-8.49,0-1.28-.03-2.55-.04-3.81M137.65,317.5c.1-.04.22-.09.35-.14-.12.05-.23.1-.35.14"/>
  <path class="st1" d="M138,317.35c-.12.05-.23.1-.35.14.1-.04.22-.09.35-.14"/>
  <path class="st1" d="M162.62,317.86c-.36-.15-.72-.32-1.08-.48l-1.04-.46c.7.28,1.41.59,2.11.94"/>
  <path class="st1" d="M155.34,272.64L20.3,217.02c22.66-6.52,52.03-3.85,78.92,7.23,26.9,11.08,47.77,29.1,56.12,48.4"/>
  <path class="st1" d="M294.85,217.87l-137.52,54.78c8.8-19.29,30.21-37.2,57.61-48.11,17.22-6.86,35.36-10.38,52.13-10.38,9.9,0,19.32,1.22,27.78,3.72"/>
  <path class="st1" d="M265.41,138.93v-6.59h-1.9l-9.53-.34.21-27.25.85-5.23,5-4.9c0-.52-3.03-1.02-3.03-1.02v-3.38c-.88-1.35-4.34-1.52-4.34-1.52v-18.76l4.34-6.09-1.52-1.69v-2.88c-.65-.68-6.5-1.86-6.5-1.86v-12c-.43-4.91-3.91-5.41-3.91-5.41v-4.7c-.12.01-.23.01-.34.01-2.12,0-4.23-.59-6.07-1.74l-1.95,1.68v4.99c-3.91.59-4.23,4.65-4.23,4.65v13.01c-4.45,1.02-6.39,1.77-6.39,1.77l.21,2.96-.97.84,4.12,6.61v19.1c-2.61.16-4.78,1.01-4.78,1.01l-.22,3.72c-1.08-.17-2.38.84-2.38.84l4.55,4.74.87,4.73v27.65l-10.47,3.09v1.21c.17.18.33.35.48.54.17.17.33.37.49.55,7.01,8.06,13.2,19.85,14.14,36.67l3.2,1.98v21.39l9.2,5.47.95.57.97.58c.46.03.93.08,1.39.14,3.24-.59,7.72-1.31,12.23-1.93v-53.3l7.19-9.94h-1.88ZM230.28,81.66c0,.1-.08.17-.19.17h-.04c-.1,0-.19-.07-.19-.17v-8.66c0-.09.1-.17.19-.17h.04c.12,0,.19.08.19.17v8.66ZM234.55,81.66c0,.1-.08.17-.18.17h-.48c-.09,0-.17-.07-.17-.17v-8.66c0-.09.08-.17.17-.17h.48c.1,0,.18.08.18.17v8.66ZM243.95,36.2c.22-.97.63,0,.63,0v2.7c-.3.32-.63,0-.63,0v-2.7ZM237.06,38.9v-2.7s.42-.97.65,0v2.7s-.32.32-.65,0M239.65,82.59c0,.12-.08.2-.2.2h-1.66c-.12,0-.21-.08-.21-.2v-9.56c0-.11.09-.19.21-.19h1.66c.12,0,.2.08.2.19v9.56ZM241.73,38.9c-.88.32-1.8,0-1.8,0v-2.7c.64-.97,1.8,0,1.8,0v2.7ZM244.9,82.59c0,.12-.1.2-.21.2h-1.66c-.12,0-.21-.08-.21-.2v-9.56c0-.11.1-.19.21-.19h1.66c.11,0,.21.08.21.19v9.56ZM249.07,81.66c0,.1-.08.17-.17.17h-.46c-.1,0-.18-.07-.18-.17v-8.66c0-.09.08-.17.18-.17h.46c.09,0,.17.08.17.17v8.66ZM252.35,81.66c0,.1-.08.17-.18.17h-.06c-.1,0-.17-.07-.17-.17v-8.66c0-.09.07-.17.17-.17h.06c.1,0,.18.08.18.17v8.66Z"/>
  <path class="st0" d="M236.44,207.06c-3.11.73-9.52,2.37-17.35,4.94l-.12.04c-1.93.64-3.7,1.24-5.42,1.87l-.1.03c-21.72,7.82-49.22,21.62-57.13,43.03-6.88-18.58-28.81-31.29-46.04-38.67-14.9-6.39-28.94-10.02-34.07-11.25l2.77-.75,7.08-4.2v-21.43l3.08-1.9.06-1.39c.69-16.17,6.41-29.33,17.03-39.11,7.97-7.34,15.79-9.89,15.93-9.94l.35-.15c20.2-10.34,29.7-19.38,33.72-24.13,4.02,4.75,13.53,13.79,33.78,24.16l.34.14c.34.1,8.11,2.76,15.9,9.93,2.24,2.07,4.29,4.31,6.07,6.65.15.19.28.38.43.57l.06.1c.15.21.32.42.46.63,6.12,8.58,9.48,19.05,9.98,31.16l.05,1.39,3.08,1.9v21.43l6.77,4.04,3.26.92Z"/>
  <path class="st1" d="M252.75,30.29c-.81,1.09-1.84,1.99-3.04,2.68-1.77,1.01-3.77,1.42-5.74,1.28-1.56-.12-3.09-.58-4.47-1.37-.93-.55-1.79-1.24-2.53-2.07-1.02-1.13-1.73-2.39-2.38-4.22-1.01-3.39-.33-6.71,1.99-9.6.93-1.17,2.15-2.08,3.62-2.75.71-.32,1.44-.55,2.24-.7-3.03,2.17-4.37,5.19-4.02,8.98.43,4.53,3.92,8.17,8.48,8.83,1.8.28,3.59.01,5.29-.76.19-.1.38-.19.57-.3"/>
  <path class="st0" d="M159.26,108.53c-.25-.21-.34-.44-.32-1.06.08-2.35-.63-4.71-1.65-5.62-.17-.16-.41-.17-.41-.73,0-.68-.1-1.38.23-1.93.75-1.27.72-3.43-.03-4.72-.35-.61-.4-2-.1-2.69.52-1.13.52-2.55,0-3.63-.15-.34-.24-.71-.24-1.17v-2.12c0-3.1-.08-6.18-.19-9.26-.02-.45-.02-.95-.2-1.28h-.12c-.2.51-.19,1.16-.21,1.76-.1,3.65-.21,7.31-.19,10.98,0,.44-.06.75-.22,1.03-.56,1.11-.57,2.51-.05,3.66.34.77.3,2.06-.07,2.72-.78,1.33-.78,3.49,0,4.82.26.43.36,1.21.26,1.88-.05.34-.19.36-.31.46-.58.44-1.07,1.14-1.42,2.28-.32,1.02-.48,2.13-.46,3.37,0,.61,0,.83-.1,1.01.83-.49,1.7-.75,2.62-.75,1.46,0,2.82.67,3.99,1.81-.26-.3-.54-.57-.82-.82"/>
  <path class="st1" d="M138,317.35c-.12.05-.23.1-.35.14.1-.04.22-.09.35-.14"/>
  <path class="st1" d="M162.62,317.86c-.36-.15-.72-.32-1.08-.48l-1.04-.46c.7.28,1.41.59,2.11.94"/>
</svg>